<svg width="20" height="20" viewBox="0 0 26 25" fill="none" xmlns="http://www.w3.org/2000/svg">
<path d="M22.75 10.4167C22.75 17.7083 13 23.9583 13 23.9583C13 23.9583 3.25 17.7083 3.25 10.4167C3.25 7.93026 4.27723 5.54569 6.10571 3.78754C7.93419 2.02938 10.4141 1.04166 13 1.04166C15.5859 1.04166 18.0658 2.02938 19.8943 3.78754C21.7228 5.54569 22.75 7.93026 22.75 10.4167Z" stroke="white" stroke-width="2" stroke-linecap="round" stroke-linejoin="round"/>
<path d="M13 13.5417C14.7949 13.5417 16.25 12.1426 16.25 10.4167C16.25 8.69077 14.7949 7.29166 13 7.29166C11.2051 7.29166 9.75 8.69077 9.75 10.4167C9.75 12.1426 11.2051 13.5417 13 13.5417Z" stroke="white" stroke-width="2" stroke-linecap="round" stroke-linejoin="round"/>
</svg>
